# xmcd
#
# Track frame offsets: 
#        150
#        11302
#        26892
#        40515
#        52080
#        66137
#        78965
#        93337
#        125810
#        155845
#        174302
#        193300
#        210882
#        222045
#        234837
#        247534
#
# Disc length: 3953 seconds
#
# Revision: 3
# Processed by: cddbd v1.5.2PL0 Copyright (c) Steve Scherf et al.
# Submitted via: ExactAudioCopyFreeDBPlugin 1.0
#
DISCID=c80f6f10
DTITLE=Various Artist - Whole Lotta Blues^ Legends of Blues Guitar
DYEAR=1999
DGENRE=Blues
TTITLE0=John Mayall - Steppin' Out
TTITLE1=Johnny ''Guitar'' Watson - Three Hours Past Midnight
TTITLE2=B. B. King - Three O'Clock Blues
TTITLE3=John Lee Hooker - Boom Boom
TTITLE4=Son Seals - Hot Sauce
TTITLE5=Gary Moore - Too Tired
TTITLE6=T. Bone Walker - Cold Cold Feeling
TTITLE7=Buddy Guy - Stone Crazy
TTITLE8=Roy Buchanan - When a Guitar Plays the Blues
TTITLE9=Freddie King - Me and My Guitar
TTITLE10=The Electric Flag - Killing Floor
TTITLE11=Johnny Winter - Mean Mistreater
TTITLE12=Albert Collins - Collins' Mix
TTITLE13=Albert King - Crosscut Saw
TTITLE14=Bo Diddley - Road Runner
TTITLE15=The Duke Robillard Band - I Think You Know
EXTD=
EXTT0=
EXTT1=
EXTT2=
EXTT3=
EXTT4=
EXTT5=
EXTT6=
EXTT7=
EXTT8=
EXTT9=
EXTT10=
EXTT11=
EXTT12=
EXTT13=
EXTT14=
EXTT15=
PLAYORDER=
